<svg width="53" height="52" viewBox="0 0 53 52" fill="none" xmlns="http://www.w3.org/2000/svg">
<path d="M4.4549 38C4.4549 39.1046 3.56115 40 2.45865 40C1.35615 40 0.462402 39.1046 0.462402 38C0.462402 36.8954 1.35615 36 2.45865 36C3.56115 36 4.4549 36.8954 4.4549 38Z" fill="#E4A30B"/>
<path d="M4.4549 50C4.4549 51.1046 3.56115 52 2.45865 52C1.35615 52 0.462402 51.1046 0.462402 50C0.462402 48.8954 1.35615 48 2.45865 48C3.56115 48 4.4549 48.8954 4.4549 50Z" fill="#E4A30B"/>
<path d="M28.4099 14C28.4099 15.1046 27.5162 16 26.4137 16C25.3112 16 24.4174 15.1046 24.4174 14C24.4174 12.8954 25.3112 12 26.4137 12C27.5162 12 28.4099 12.8954 28.4099 14Z" fill="#E4A30B"/>
<path d="M28.4099 26C28.4099 27.1046 27.5162 28 26.4137 28C25.3112 28 24.4174 27.1046 24.4174 26C24.4174 24.8954 25.3112 24 26.4137 24C27.5162 24 28.4099 24.8954 28.4099 26Z" fill="#E4A30B"/>
<path d="M28.4099 38C28.4099 39.1046 27.5162 40 26.4137 40C25.3112 40 24.4174 39.1046 24.4174 38C24.4174 36.8954 25.3112 36 26.4137 36C27.5162 36 28.4099 36.8954 28.4099 38Z" fill="#E4A30B"/>
<path d="M28.4099 50C28.4099 51.1046 27.5162 52 26.4137 52C25.3112 52 24.4174 51.1046 24.4174 50C24.4174 48.8954 25.3112 48 26.4137 48C27.5162 48 28.4099 48.8954 28.4099 50Z" fill="#E4A30B"/>
<path d="M16.4324 14C16.4324 15.1046 15.5387 16 14.4362 16C13.3337 16 12.4399 15.1046 12.4399 14C12.4399 12.8954 13.3337 12 14.4362 12C15.5387 12 16.4324 12.8954 16.4324 14Z" fill="#E4A30B"/>
<path d="M16.4324 26C16.4324 27.1046 15.5387 28 14.4362 28C13.3337 28 12.4399 27.1046 12.4399 26C12.4399 24.8954 13.3337 24 14.4362 24C15.5387 24 16.4324 24.8954 16.4324 26Z" fill="#E4A30B"/>
<path d="M16.4324 38C16.4324 39.1046 15.5387 40 14.4362 40C13.3337 40 12.4399 39.1046 12.4399 38C12.4399 36.8954 13.3337 36 14.4362 36C15.5387 36 16.4324 36.8954 16.4324 38Z" fill="#E4A30B"/>
<path d="M16.4324 50C16.4324 51.1046 15.5387 52 14.4362 52C13.3337 52 12.4399 51.1046 12.4399 50C12.4399 48.8954 13.3337 48 14.4362 48C15.5387 48 16.4324 48.8954 16.4324 50Z" fill="#E4A30B"/>
<path d="M40.3874 2C40.3874 3.10457 39.4937 4 38.3912 4C37.2887 4 36.3949 3.10457 36.3949 2C36.3949 0.89543 37.2887 0 38.3912 0C39.4937 0 40.3874 0.89543 40.3874 2Z" fill="#E4A30B"/>
<path d="M40.3874 14C40.3874 15.1046 39.4937 16 38.3912 16C37.2887 16 36.3949 15.1046 36.3949 14C36.3949 12.8954 37.2887 12 38.3912 12C39.4937 12 40.3874 12.8954 40.3874 14Z" fill="#E4A30B"/>
<path d="M40.3874 26C40.3874 27.1046 39.4937 28 38.3912 28C37.2887 28 36.3949 27.1046 36.3949 26C36.3949 24.8954 37.2887 24 38.3912 24C39.4937 24 40.3874 24.8954 40.3874 26Z" fill="#E4A30B"/>
<path d="M40.3874 38C40.3874 39.1046 39.4937 40 38.3912 40C37.2887 40 36.3949 39.1046 36.3949 38C36.3949 36.8954 37.2887 36 38.3912 36C39.4937 36 40.3874 36.8954 40.3874 38Z" fill="#E4A30B"/>
<path d="M40.3874 50C40.3874 51.1046 39.4937 52 38.3912 52C37.2887 52 36.3949 51.1046 36.3949 50C36.3949 48.8954 37.2887 48 38.3912 48C39.4937 48 40.3874 48.8954 40.3874 50Z" fill="#E4A30B"/>
<path d="M52.3649 2C52.3649 3.10457 51.4712 4 50.3687 4C49.2662 4 48.3724 3.10457 48.3724 2C48.3724 0.89543 49.2662 0 50.3687 0C51.4712 0 52.3649 0.89543 52.3649 2Z" fill="#E4A30B"/>
<path d="M52.3649 14C52.3649 15.1046 51.4712 16 50.3687 16C49.2662 16 48.3724 15.1046 48.3724 14C48.3724 12.8954 49.2662 12 50.3687 12C51.4712 12 52.3649 12.8954 52.3649 14Z" fill="#E4A30B"/>
<path d="M52.3649 26C52.3649 27.1046 51.4712 28 50.3687 28C49.2662 28 48.3724 27.1046 48.3724 26C48.3724 24.8954 49.2662 24 50.3687 24C51.4712 24 52.3649 24.8954 52.3649 26Z" fill="#E4A30B"/>
<path d="M52.3649 38C52.3649 39.1046 51.4712 40 50.3687 40C49.2662 40 48.3724 39.1046 48.3724 38C48.3724 36.8954 49.2662 36 50.3687 36C51.4712 36 52.3649 36.8954 52.3649 38Z" fill="#E4A30B"/>
<path d="M52.3649 50C52.3649 51.1046 51.4712 52 50.3687 52C49.2662 52 48.3724 51.1046 48.3724 50C48.3724 48.8954 49.2662 48 50.3687 48C51.4712 48 52.3649 48.8954 52.3649 50Z" fill="#E4A30B"/>
</svg>
