<svg width="41" height="35" viewBox="0 0 41 35" fill="none" xmlns="http://www.w3.org/2000/svg">
<path d="M32.4712 0C35.1329 0.691359 37.115 2.24692 38.4175 4.66667C39.72 7.02881 40.3713 9.85185 40.3713 13.1358C40.3713 18.321 38.7007 22.8148 35.3594 26.6173C32.0748 30.3621 28.2239 33.1564 23.8067 35L21.0884 30.5062L21.1733 29.642C23.3819 28.8354 25.3357 27.107 27.0346 24.4568C28.7336 21.8066 29.583 19.0412 29.583 16.1605C29.583 14.3169 29.2149 12.8189 28.4787 11.6667C27.7425 10.4568 26.7232 9.79424 25.4206 9.67901L25.6755 7.95062L32.4712 0ZM11.8292 0C14.4908 0.691359 16.4729 2.24692 17.7754 4.66667C19.078 7.02881 19.7292 9.85185 19.7292 13.1358C19.7292 18.321 18.0586 22.8148 14.7174 26.6173C11.4327 30.3621 7.58182 33.1564 3.16459 35L0.446289 30.5062L0.531236 29.642C2.73985 28.8354 4.69363 27.107 6.39256 24.4568C8.0915 21.8066 8.94097 19.0412 8.94097 16.1605C8.94097 14.3169 8.57287 12.8189 7.83666 11.6667C7.10046 10.4568 6.08109 9.79424 4.77858 9.67901L5.03342 7.95062L11.8292 0Z" fill="#E4A30B"/>
</svg>
