<svg width="148" height="36" viewBox="0 0 148 36" fill="none" xmlns="http://www.w3.org/2000/svg">
<g clip-path="url(#clip0_6_313)">
<path d="M48.624 37.52V2H39.648L20.88 29.408L17.712 25.424C23.376 24.56 26.544 19.568 26.544 14.24C26.544 9.152 23.76 4.88 20.016 3.248C18.144 2.432 15.36 2 11.664 2H0V37.52H8.688V26.048H8.784L16.992 37.52H26.16L29.28 32.384H39.552V37.52H48.624ZM8.688 19.856V9.968H12.144C15.552 9.968 17.856 11.696 17.856 14.768C17.856 18.032 15.696 19.856 12.096 19.856H8.688ZM39.552 25.184H33.6L39.456 15.344H39.552V25.184ZM85.03 37.52V2H76.342L76.726 24.464L62.902 2H55.078V37.52H63.766L63.526 15.824L77.158 37.52H85.03ZM111.228 37.52V29.552H100.188V23.456H110.892V15.488H100.188V9.968H111.228V2H91.5V37.52H111.228ZM147.29 37.52L134.762 19.712L146.522 2H137.018L126.986 17.984H126.89V2H117.818V37.52H126.89V22.16H126.986L136.682 37.52H147.29Z" fill="#9C9C9C"/>
</g>
<defs>
<clipPath id="clip0_6_313">
<rect width="148" height="36" fill="white"/>
</clipPath>
</defs>
</svg>
