<svg width="41" height="35" viewBox="0 0 41 35" fill="none" xmlns="http://www.w3.org/2000/svg">
<path d="M29.0287 35C26.3727 34.3086 24.3948 32.7819 23.095 30.4198C21.7953 28 21.1454 25.1481 21.1454 21.8642C21.1454 16.679 22.7842 12.214 26.0619 8.46913C29.396 4.66667 33.267 1.84362 37.6749 0L40.3874 4.49383L40.3026 5.35803C38.0987 6.16461 36.1491 7.89301 34.4537 10.5432C32.7584 13.1934 31.9108 15.9588 31.9108 18.8395C31.9108 20.6831 32.2781 22.2099 33.0127 23.4198C33.7474 24.572 34.7646 25.2058 36.0643 25.321L35.81 27.0494L29.0287 35ZM8.34568 35C5.68967 34.3086 3.71178 32.7819 2.41203 30.4198C1.11228 28 0.462402 25.1481 0.462402 21.8642C0.462402 16.679 2.10122 12.214 5.37886 8.46913C8.713 4.66667 12.584 1.84362 16.9919 0L19.7044 4.49383L19.6196 5.35803C17.4157 6.16461 15.4661 7.89301 13.7707 10.5432C12.0754 13.1934 11.2277 15.9588 11.2277 18.8395C11.2277 20.6831 11.5951 22.2099 12.3297 23.4198C13.0643 24.572 14.0815 25.2058 15.3813 25.321L15.127 27.0494L8.34568 35Z" fill="#E4A30B"/>
</svg>
