<svg width="200" height="49" viewBox="0 0 200 49" fill="none" xmlns="http://www.w3.org/2000/svg">
<g clip-path="url(#clip0_6_315)">
<path d="M54.381 44.466C51.061 44.466 48.516 43.898 46.745 42.762C45.005 41.594 44.136 39.889 44.136 37.648C44.136 36.512 44.516 35.58 45.274 34.854C46.065 34.097 47.077 33.718 48.31 33.718C49.037 33.75 49.59 33.938 49.97 34.286C50.35 34.602 50.54 34.902 50.54 35.186C50.54 35.217 50.381 35.328 50.065 35.517C49.749 35.707 49.465 35.991 49.211 36.369C48.958 36.749 48.831 37.269 48.831 37.932C48.831 39.416 49.275 40.568 50.16 41.389C51.077 42.178 52.484 42.572 54.381 42.572C55.678 42.572 56.816 42.32 57.797 41.815C58.777 41.31 59.52 40.647 60.026 39.826C60.563 38.974 60.832 38.09 60.832 37.174C60.832 36.038 60.5 35.06 59.836 34.239C59.191 33.4074 58.3845 32.7148 57.465 32.203C56.515 31.635 55.219 30.987 53.575 30.261C51.678 29.409 50.145 28.636 48.975 27.941C47.7993 27.2421 46.7812 26.3071 45.985 25.195C45.164 24.027 44.753 22.591 44.753 20.886C44.753 18.14 45.685 16.088 47.551 14.731C49.449 13.373 51.931 12.695 54.998 12.695C57.401 12.695 59.488 13.2 61.259 14.21C63.062 15.22 63.963 16.704 63.963 18.66C63.963 19.797 63.567 20.744 62.777 21.502C62.018 22.228 61.022 22.591 59.789 22.591C59.061 22.559 58.508 22.385 58.129 22.07C57.749 21.723 57.559 21.407 57.559 21.123C57.559 21.091 57.765 20.981 58.176 20.791C58.619 20.602 58.998 20.318 59.314 19.939C59.662 19.56 59.836 19.039 59.836 18.377C59.836 17.209 59.378 16.293 58.461 15.63C57.575 14.967 56.437 14.636 55.045 14.636C53.117 14.636 51.646 15.094 50.635 16.009C49.654 16.893 49.164 17.998 49.164 19.324C49.164 20.428 49.464 21.36 50.065 22.117C50.665 22.843 51.63 23.569 52.958 24.295C54.1096 24.9005 55.2802 25.4691 56.468 26C58.492 26.915 60.089 27.752 61.259 28.51C62.4637 29.2707 63.4842 30.2896 64.247 31.493C65.069 32.723 65.481 34.255 65.481 36.085C65.481 37.664 64.975 39.1 63.963 40.395C62.983 41.657 61.638 42.651 59.931 43.377C58.255 44.103 56.405 44.467 54.381 44.467V44.466ZM78.394 44.088C76.244 44.088 74.536 43.44 73.271 42.146C72.006 40.852 71.374 39.147 71.374 37.032V28.272C71.374 27.452 71.342 26.852 71.279 26.473C71.248 26.095 71.058 25.763 70.709 25.479C70.362 25.195 69.777 25.053 68.955 25.053C68.575 25.053 68.291 25.006 68.101 24.911C67.911 24.785 67.817 24.516 67.817 24.106C67.817 23.916 67.88 23.743 68.007 23.586C68.133 23.396 68.323 23.286 68.576 23.254C70.568 22.969 72.276 22.559 73.698 22.022C74.141 21.865 74.504 21.77 74.789 21.738H74.931C75.437 21.738 75.691 22.038 75.691 22.638V36.985C75.691 38.437 76.149 39.558 77.066 40.347C77.9549 41.0944 79.0827 41.4975 80.244 41.483C81.73 41.483 82.994 41.12 84.038 40.394C85.082 39.668 85.778 38.942 86.125 38.216V28.273C86.125 27.452 86.094 26.853 86.031 26.473C85.999 26.095 85.809 25.763 85.461 25.479C85.113 25.195 84.528 25.053 83.706 25.053C83.326 25.053 83.042 25.006 82.853 24.911C82.663 24.785 82.568 24.516 82.568 24.106C82.568 23.916 82.631 23.743 82.758 23.586C82.884 23.396 83.074 23.286 83.327 23.254C85.319 22.969 87.027 22.559 88.45 22.022C88.892 21.865 89.256 21.77 89.54 21.738H89.683C90.189 21.738 90.442 22.038 90.442 22.638V39.022C90.442 40.885 91.691 41.816 94.189 41.816C94.726 41.816 94.995 42.116 94.995 42.716C94.995 43.157 94.726 43.426 94.189 43.52L86.552 44.041C86.331 44.041 86.204 43.962 86.172 43.805C86.142 43.678 86.125 43.442 86.125 43.095V40.442H86.031C85.305 41.1239 84.5614 41.7868 83.801 42.43C83.232 42.872 82.489 43.251 81.571 43.567C80.686 43.914 79.627 44.087 78.394 44.087V44.088ZM97.59 43.662C97.4795 43.6615 97.3705 43.6355 97.2717 43.5861C97.1728 43.5367 97.0867 43.4651 97.02 43.377C96.894 43.188 96.83 42.967 96.83 42.715C96.862 42.305 96.957 42.067 97.115 42.005C97.274 41.91 97.558 41.862 97.969 41.862C98.791 41.862 99.376 41.72 99.724 41.436C100.072 41.152 100.262 40.82 100.293 40.442C100.357 40.062 100.388 39.463 100.388 38.642V27.799C100.388 26.979 100.357 26.379 100.293 25.999C100.262 25.621 100.072 25.289 99.724 25.006C99.376 24.722 98.791 24.579 97.969 24.579C97.589 24.579 97.305 24.532 97.116 24.437C96.926 24.311 96.831 24.043 96.831 23.632C96.831 23.443 96.894 23.269 97.021 23.112C97.147 22.922 97.337 22.812 97.59 22.78C99.645 22.464 101.337 22.054 102.665 21.549C103.203 21.391 103.566 21.296 103.756 21.265H103.898C104.404 21.265 104.657 21.565 104.657 22.165V25.1H104.799C105.906 23.995 107.029 23.127 108.167 22.496C109.306 21.833 110.333 21.502 111.25 21.502C112.294 21.502 113.116 21.896 113.717 22.685C114.349 23.443 114.665 24.327 114.665 25.337C114.665 26.221 114.397 27.01 113.859 27.704C113.321 28.399 112.578 28.746 111.63 28.746C111.217 28.7532 110.809 28.6555 110.444 28.462C110.128 28.272 109.954 28.115 109.922 27.989C109.954 27.926 110.112 27.736 110.396 27.42C110.681 27.073 110.823 26.679 110.823 26.237C110.823 25.668 110.665 25.211 110.349 24.864C110.064 24.516 109.669 24.343 109.163 24.343C108.626 24.343 107.946 24.611 107.124 25.148C106.301 25.653 105.495 26.3 104.705 27.089V38.642C104.705 39.463 104.736 40.062 104.799 40.442C104.863 40.82 105.068 41.152 105.416 41.436C105.764 41.72 106.349 41.862 107.171 41.862H107.456C107.709 41.862 107.898 41.91 108.025 42.004C108.151 42.099 108.23 42.336 108.262 42.714C108.262 42.967 108.199 43.188 108.072 43.377C107.946 43.567 107.756 43.662 107.503 43.662C105.844 43.5719 104.184 43.5242 102.523 43.519C101.1 43.519 99.456 43.567 97.59 43.661V43.662ZM171.257 44.088C169.107 44.088 167.194 43.582 165.518 42.572C163.842 41.531 162.53 40.173 161.581 38.5C160.677 36.8447 160.204 34.9882 160.206 33.102C160.206 30.735 160.759 28.683 161.866 26.947C162.973 25.179 164.38 23.837 166.087 22.922C167.795 21.975 169.518 21.502 171.257 21.502C173.408 21.502 175.321 22.022 176.997 23.064C178.641 24.0407 179.986 25.449 180.886 27.136C181.823 28.7632 182.313 30.6086 182.309 32.486C182.309 34.854 181.74 36.922 180.602 38.69C179.495 40.426 178.088 41.767 176.38 42.714C174.673 43.63 172.965 44.088 171.257 44.088ZM171.257 42.336C173.408 42.336 174.973 41.42 175.953 39.589C176.965 37.759 177.471 35.391 177.471 32.487C177.471 29.772 176.949 27.563 175.906 25.857C174.894 24.122 173.344 23.254 171.257 23.254C169.076 23.254 167.495 24.154 166.514 25.953C165.534 27.752 165.044 30.103 165.044 33.008C165.044 35.722 165.55 37.964 166.562 39.731C167.574 41.468 169.139 42.336 171.257 42.336ZM194.261 44.324C192.711 44.324 191.383 43.756 190.276 42.62C189.17 41.483 188.616 39.858 188.616 37.743V23.822L185.865 23.917C185.773 23.9178 185.682 23.8967 185.6 23.8555C185.517 23.8143 185.446 23.7541 185.391 23.68C185.267 23.4987 185.2 23.2839 185.201 23.064C185.201 22.78 185.249 22.544 185.343 22.354C185.47 22.133 185.644 22.007 185.865 21.975C186.972 21.755 187.826 21.407 188.427 20.934C189.059 20.428 189.518 19.892 189.802 19.324C190.087 18.724 190.435 17.824 190.846 16.624C191.004 16.214 191.352 16.009 191.889 16.009C192.11 16.009 192.332 16.072 192.553 16.199C192.774 16.293 192.885 16.451 192.885 16.672L192.553 22.07L198.103 21.738H198.198C198.609 21.738 198.814 22.038 198.814 22.638C198.814 22.985 198.751 23.317 198.624 23.632C198.53 23.917 198.403 24.059 198.245 24.059L192.933 23.917V38.311C192.933 39.353 193.138 40.221 193.549 40.915C193.992 41.61 194.703 41.957 195.684 41.957C196.664 41.957 197.534 41.783 198.292 41.436C198.704 41.278 198.956 41.199 199.051 41.199C199.273 41.199 199.447 41.294 199.573 41.483C199.7 41.641 199.826 41.863 199.953 42.146C199.987 42.2204 200.003 42.3014 200 42.383C200 42.509 199.905 42.651 199.715 42.809C198.798 43.409 197.929 43.804 197.107 43.993C196.316 44.213 195.367 44.324 194.261 44.324ZM117.597 43.377C117.723 43.567 117.913 43.661 118.166 43.661C119.809 43.5708 121.454 43.5235 123.099 43.519C125.218 43.519 127.194 43.567 129.028 43.661C129.132 43.6634 129.235 43.6384 129.327 43.5886C129.418 43.5387 129.495 43.4658 129.55 43.377C129.676 43.187 129.739 42.967 129.739 42.714C129.708 42.336 129.629 42.099 129.502 42.004C129.407 41.91 129.218 41.862 128.933 41.862H128.648C127.605 41.862 126.862 41.783 126.419 41.625C125.976 41.468 125.676 41.183 125.518 40.773C125.36 40.331 125.281 39.621 125.281 38.643V23.915H130.309C130.419 23.9145 130.528 23.8886 130.627 23.8393C130.725 23.7901 130.811 23.7188 130.878 23.631C131.036 23.442 131.115 23.221 131.115 22.968C131.083 22.59 130.988 22.353 130.83 22.258C130.704 22.132 130.498 22.068 130.214 22.068H125.281V19.228C125.281 17.713 125.344 16.387 125.47 15.25C125.588 14.1085 125.961 13.0082 126.561 12.03C127.162 11.052 128.095 10.563 129.36 10.563C129.505 10.563 129.646 10.571 129.782 10.588C129.764 10.0575 129.799 9.5266 129.886 9.003C129.821 9.00122 129.757 9.00022 129.692 9C126.909 9.063 124.743 10.12 123.194 12.173C121.676 14.193 120.917 16.829 120.917 20.08V22.069H118.071C117.66 22.069 117.375 22.116 117.217 22.211C117.059 22.274 116.964 22.527 116.933 22.968C116.933 23.221 116.996 23.442 117.122 23.631C117.281 23.821 117.486 23.916 117.739 23.916H120.917V38.642C120.917 39.495 120.885 40.11 120.822 40.489C120.791 40.836 120.601 41.152 120.253 41.436C119.905 41.72 119.32 41.862 118.498 41.862C118.087 41.862 117.802 41.91 117.644 42.004C117.518 42.067 117.439 42.304 117.407 42.714C117.407 42.967 117.47 43.188 117.597 43.377Z" fill="#9C9C9C"/>
<path fill-rule="evenodd" clip-rule="evenodd" d="M142.952 11.8655C142.951 12.5569 142.814 13.2414 142.549 13.8799C142.284 14.5185 141.896 15.0985 141.406 15.5869C140.917 16.0754 140.336 16.4626 139.697 16.7266C139.058 16.9906 138.373 17.1261 137.682 17.1255C136.286 17.1265 134.946 16.573 133.958 15.5866C132.97 14.6003 132.414 13.2618 132.412 11.8655C132.412 11.1739 132.549 10.4893 132.814 9.85058C133.079 9.21188 133.468 8.63166 133.957 8.14303C134.447 7.65441 135.027 7.26696 135.666 7.00281C136.306 6.73865 136.99 6.60296 137.682 6.60349C138.374 6.60283 139.058 6.73843 139.698 7.00254C140.337 7.26665 140.918 7.65409 141.407 8.14274C141.896 8.63139 142.285 9.21167 142.55 9.85042C142.815 10.4892 142.952 11.1739 142.952 11.8655ZM137.682 14.4955C138.028 14.4959 138.37 14.4282 138.69 14.2962C139.009 14.1642 139.3 13.9706 139.544 13.7264C139.789 13.4821 139.983 13.1921 140.116 12.8728C140.248 12.5535 140.317 12.2112 140.317 11.8655C140.317 11.5197 140.249 11.1773 140.116 10.8579C139.984 10.5385 139.789 10.2483 139.545 10.004C139.3 9.75963 139.009 9.56591 138.69 9.43388C138.37 9.30185 138.028 9.23409 137.682 9.23449C136.984 9.23422 136.314 9.51106 135.82 10.0042C135.326 10.4973 135.048 11.1664 135.047 11.8645C135.048 12.5627 135.326 13.2321 135.82 13.7254C136.314 14.2188 136.984 14.4958 137.682 14.4955ZM135.372 19.4145V44.7845C135.372 45.0675 135.452 45.2885 135.61 45.4465C135.768 45.6365 135.989 45.7305 136.274 45.7305C136.558 45.7305 136.795 45.6045 136.985 45.3525C137.175 45.1315 137.349 44.7995 137.507 44.3575C137.665 43.9155 137.807 43.5685 137.934 43.3155H138.171C140.226 44.8625 142.661 45.6355 145.475 45.6355C147.373 45.6355 149.159 45.1305 150.835 44.1205C152.511 43.1105 153.839 41.7375 154.82 40.0005C155.831 38.2335 156.337 36.2925 156.337 34.1775C156.337 32.0305 155.895 30.1215 155.009 28.4475C154.156 26.7435 152.97 25.4175 151.452 24.4705C149.934 23.5235 148.242 23.0505 146.377 23.0505C145.238 23.0505 144.084 23.2865 142.914 23.7605C141.776 24.2025 140.748 24.8805 139.831 25.7965H139.689V19.5005C138.269 19.869 136.776 19.8393 135.372 19.4145ZM149.697 41.4215C148.527 43.1585 146.977 44.0265 145.049 44.0265C144.037 44.0265 143.136 43.8055 142.345 43.3635C141.586 42.9215 140.969 42.4005 140.495 41.8005C140.052 41.1695 139.784 40.6005 139.689 40.0965V27.5965C141.048 26.1435 142.724 25.4175 144.717 25.4175C146.962 25.4175 148.653 26.3015 149.792 28.0695C150.93 29.8055 151.499 31.9045 151.499 34.3665C151.499 37.3025 150.899 39.6545 149.697 41.4215ZM12.7 2.36749C13.0354 2.12846 13.4371 2 13.849 2C14.2609 2 14.6625 2.12846 14.998 2.36749C23.558 8.47149 27.438 15.7885 27.683 26.2875C27.796 31.3005 27.313 35.8905 25.842 39.8555C24.332 43.8235 21.649 47.4885 17.699 50.5845C17.453 50.7756 17.1655 50.906 16.8596 50.9651C16.5538 51.0241 16.2384 51.0102 15.939 50.9245C14.729 50.5775 14.523 49.1455 13.849 48.2535C13.175 49.1455 12.971 50.5765 11.759 50.9235C11.4597 51.0091 11.1444 51.0229 10.8388 50.9638C10.5332 50.9047 10.2458 50.7744 9.99997 50.5835C6.04997 47.4885 3.36597 43.8235 1.85697 39.8555C0.38697 35.8905 -0.0970298 31.3005 0.0159702 26.2875C0.25997 15.7885 4.13997 8.47049 12.7 2.36749ZM17.126 46.0625C19.598 43.7925 21.088 41.3175 22.14 38.4705C23.465 34.9905 23.847 31.1445 23.732 26.3795C23.542 18.1925 21.622 12.8655 15.809 7.91949V22.3875C18.082 22.9715 19.102 25.1975 19.102 27.6475C19.102 30.0995 18.082 32.3255 15.809 32.9095V44.7465C15.809 44.7465 16.865 45.7195 17.126 46.0625ZM10.538 46.0625C8.06597 43.7925 6.61097 41.3175 5.55797 38.4705C4.23397 34.9905 3.85197 31.1445 3.96797 26.3795C4.15797 18.2095 6.06697 12.8595 11.856 7.91949V22.3875C9.58297 22.9715 8.56197 25.1975 8.56197 27.6475C8.56197 30.0995 9.58197 32.3255 11.856 32.9095V44.7465C11.856 44.7465 10.79 45.7315 10.538 46.0625ZM13.832 25.0175C13.1338 25.017 12.4641 25.2937 11.9699 25.7869C11.4758 26.2801 11.1978 26.9493 11.197 27.6475C11.197 29.1015 12.377 30.2785 13.832 30.2785C14.5301 30.279 15.1999 30.0023 15.694 29.5091C16.1881 29.0159 16.4662 28.3466 16.467 27.6485C16.467 26.1955 15.287 25.0185 13.832 25.0185V25.0175Z" fill="#9C9C9C"/>
</g>
<defs>
<clipPath id="clip0_6_315">
<rect width="200" height="49" fill="white"/>
</clipPath>
</defs>
</svg>
